<svg version="1.1" id="Layer_1" xmlns="http://www.w3.org/2000/svg" x="0" y="0" viewBox="0 0 289.48 289.48" xml:space="preserve"><path d="M273.74 21.48h-32.52V5a5 5 0 00-5-5h-42.96a5 5 0 00-5 5v16.48h-87.04V5a5 5 0 00-5-5H53.26a5 5 0 00-5 5v16.48H15.74c-8.271 0-15 6.729-15 15v238c0 8.271 6.729 15 15 15h258c8.271 0 15-6.729 15-15v-238c0-8.271-6.729-15-15-15zm-75.48 5V10h32.96v32.96h-32.96V26.48zm-140 0V10h32.96v32.96H58.26V26.48zm220.48 248c0 2.757-2.243 5-5 5h-258c-2.757 0-5-2.243-5-5v-176h268v176zm0-186h-268v-52c0-2.757 2.243-5 5-5h32.52v16.48a5 5 0 005 5h42.96a5 5 0 005-5V31.48h87.04v16.48a5 5 0 005 5h42.96a5 5 0 005-5V31.48h32.52c2.757 0 5 2.243 5 5v52z"/><path d="M39.031 174.689h28.418a5 5 0 005-5v-28.418a5 5 0 00-5-5H39.031a5 5 0 00-5 5v28.418a5 5 0 005 5zm61 0h28.418a5 5 0 005-5v-28.418a5 5 0 00-5-5h-28.418a5 5 0 00-5 5v28.418a5 5 0 005 5zm61 0h28.418a5 5 0 005-5v-28.418a5 5 0 00-5-5h-28.418a5 5 0 00-5 5v28.418a5 5 0 005 5zm61 0h28.418a5 5 0 005-5v-28.418a5 5 0 00-5-5h-28.418a5 5 0 00-5 5v28.418a5 5 0 005 5zm-183 60.667h28.418a5 5 0 005-5v-28.418a5 5 0 00-5-5H39.031a5 5 0 00-5 5v28.418a5 5 0 005 5zm61 0h28.418a5 5 0 005-5v-28.418a5 5 0 00-5-5h-28.418a5 5 0 00-5 5v28.418a5 5 0 005 5zm61 0h28.418a5 5 0 005-5v-28.418a5 5 0 00-5-5h-28.418a5 5 0 00-5 5v28.418a5 5 0 005 5zm61 0h28.418a5 5 0 005-5v-28.418a5 5 0 00-5-5h-28.418a5 5 0 00-5 5v28.418a5 5 0 005 5z"/></svg>